<?xml version="1.0" encoding="utf-8"?>
<svg version="1.1" id="Layer_1" xmlns="http://www.w3.org/2000/svg" xmlns:xlink="http://www.w3.org/1999/xlink" x="0px" y="0px"
	 viewBox="0 0 300 75" enable-background="new 0 0 300 75" xml:space="preserve">
<g>
	<g>
		<g>
			<path fill="#FFFFFF" d="M71.6,37.9c-0.1,0.2-0.1,0.3-0.2,0.4c-0.1,0.1-0.2,0.2-0.4,0.2c-0.2,0.1-0.4,0.1-0.7,0.1
				c-0.3,0-0.7,0-1.2,0c-0.4,0-0.8,0-1,0c-0.3,0-0.5,0-0.7,0c-0.2,0-0.4-0.1-0.5-0.1c-0.1,0-0.2-0.1-0.3-0.2
				c-0.1-0.1-0.2-0.1-0.2-0.2c0-0.1-0.1-0.2-0.1-0.3l-5.9-17.5C60.1,20,60,19.7,60,19.5c0-0.2,0-0.4,0.2-0.5
				c0.1-0.1,0.3-0.2,0.6-0.2c0.3,0,0.7,0,1.3,0c0.5,0,0.8,0,1.1,0c0.3,0,0.5,0.1,0.6,0.1c0.1,0.1,0.2,0.1,0.3,0.2
				c0.1,0.1,0.1,0.2,0.2,0.4l4.8,15.2h0l4.7-15.2c0-0.2,0.1-0.3,0.2-0.4c0.1-0.1,0.2-0.2,0.3-0.3c0.1-0.1,0.4-0.1,0.6-0.1
				c0.3,0,0.7,0,1.1,0c0.5,0,0.8,0,1.1,0c0.3,0,0.4,0.1,0.5,0.2c0.1,0.1,0.1,0.3,0.1,0.5c0,0.2-0.1,0.5-0.2,0.9L71.6,37.9z"/>
			<path fill="#FFFFFF" d="M89,38c0,0.1,0,0.2-0.1,0.3c-0.1,0.1-0.2,0.1-0.3,0.2c-0.2,0.1-0.4,0.1-0.6,0.1c-0.3,0-0.6,0-1,0
				c-0.4,0-0.7,0-1,0c-0.3,0-0.5-0.1-0.6-0.1c-0.2-0.1-0.3-0.1-0.3-0.2c-0.1-0.1-0.1-0.2-0.1-0.3V19.4c0-0.1,0-0.2,0.1-0.3
				c0.1-0.1,0.2-0.1,0.3-0.2c0.2-0.1,0.4-0.1,0.6-0.1c0.3,0,0.6,0,1,0c0.4,0,0.7,0,1,0c0.3,0,0.5,0.1,0.6,0.1
				c0.2,0.1,0.3,0.1,0.3,0.2c0.1,0.1,0.1,0.2,0.1,0.3V38z"/>
			<path fill="#FFFFFF" d="M113.8,21.9c0,0.3,0,0.6,0,0.8c0,0.2-0.1,0.4-0.1,0.5c0,0.1-0.1,0.2-0.2,0.3c-0.1,0.1-0.1,0.1-0.2,0.1
				c-0.1,0-0.3-0.1-0.6-0.3c-0.3-0.2-0.7-0.4-1.2-0.6c-0.5-0.2-1.1-0.4-1.7-0.6c-0.7-0.2-1.5-0.3-2.4-0.3c-1,0-1.8,0.2-2.6,0.5
				c-0.8,0.3-1.4,0.8-2,1.4c-0.5,0.6-1,1.3-1.3,2.2c-0.3,0.9-0.4,1.8-0.4,2.8c0,1.1,0.1,2.1,0.4,3c0.3,0.9,0.7,1.6,1.3,2.2
				c0.5,0.6,1.2,1,1.9,1.3c0.8,0.3,1.6,0.4,2.5,0.4c0.4,0,0.9-0.1,1.3-0.2c0.4-0.1,0.8-0.3,1.2-0.5v-4.6H106c-0.2,0-0.3-0.1-0.4-0.3
				c-0.1-0.2-0.2-0.6-0.2-1.2c0-0.3,0-0.5,0-0.7c0-0.2,0.1-0.3,0.1-0.5c0.1-0.1,0.1-0.2,0.2-0.3c0.1-0.1,0.2-0.1,0.2-0.1h6.7
				c0.2,0,0.3,0,0.4,0.1c0.1,0.1,0.2,0.1,0.3,0.3c0.1,0.1,0.2,0.2,0.2,0.4c0.1,0.2,0.1,0.3,0.1,0.5v7.9c0,0.3-0.1,0.6-0.2,0.8
				c-0.1,0.2-0.3,0.4-0.7,0.5c-0.3,0.1-0.7,0.3-1.2,0.4c-0.5,0.1-1,0.3-1.5,0.4c-0.5,0.1-1.1,0.2-1.6,0.2c-0.5,0.1-1.1,0.1-1.6,0.1
				c-1.6,0-3-0.2-4.2-0.7c-1.2-0.5-2.3-1.1-3.2-2c-0.9-0.9-1.5-1.9-2-3.1c-0.5-1.2-0.7-2.6-0.7-4.2c0-1.6,0.2-3.1,0.7-4.4
				c0.5-1.3,1.2-2.4,2.1-3.3c0.9-0.9,2-1.6,3.2-2.1c1.3-0.5,2.7-0.7,4.2-0.7c0.9,0,1.6,0.1,2.3,0.2c0.7,0.1,1.3,0.3,1.8,0.4
				c0.5,0.2,1,0.3,1.3,0.5c0.3,0.2,0.6,0.4,0.7,0.5c0.1,0.1,0.2,0.3,0.3,0.6C113.8,21,113.8,21.4,113.8,21.9z"/>
			<path fill="#FFFFFF" d="M126.6,38c0,0.1,0,0.2-0.1,0.3c-0.1,0.1-0.2,0.1-0.3,0.2c-0.2,0.1-0.4,0.1-0.6,0.1c-0.3,0-0.6,0-1,0
				c-0.4,0-0.7,0-1,0c-0.3,0-0.5-0.1-0.6-0.1c-0.2-0.1-0.3-0.1-0.3-0.2c-0.1-0.1-0.1-0.2-0.1-0.3V19.4c0-0.1,0-0.2,0.1-0.3
				c0.1-0.1,0.2-0.1,0.3-0.2c0.2-0.1,0.4-0.1,0.6-0.1c0.3,0,0.6,0,1,0c0.4,0,0.7,0,1,0c0.3,0,0.5,0.1,0.6,0.1
				c0.2,0.1,0.3,0.1,0.3,0.2c0.1,0.1,0.1,0.2,0.1,0.3V38z"/>
			<path fill="#FFFFFF" d="M146.4,36.9c0,0.3,0,0.6,0,0.8c0,0.2-0.1,0.4-0.1,0.5c-0.1,0.1-0.1,0.2-0.2,0.3c-0.1,0.1-0.2,0.1-0.3,0.1
				h-9.1c-0.3,0-0.6-0.1-0.8-0.3c-0.2-0.2-0.3-0.5-0.3-1V19.4c0-0.1,0-0.2,0.1-0.3c0.1-0.1,0.2-0.1,0.3-0.2c0.2-0.1,0.4-0.1,0.6-0.1
				c0.3,0,0.6,0,1,0c0.4,0,0.7,0,1,0c0.3,0,0.5,0.1,0.6,0.1c0.2,0.1,0.3,0.1,0.3,0.2c0.1,0.1,0.1,0.2,0.1,0.3v15.9h6.2
				c0.1,0,0.2,0,0.3,0.1c0.1,0.1,0.1,0.1,0.2,0.3c0.1,0.1,0.1,0.3,0.1,0.5C146.4,36.3,146.4,36.6,146.4,36.9z"/>
			<path fill="#FFFFFF" d="M169.7,37.1c0.1,0.4,0.2,0.7,0.2,0.9c0,0.2,0,0.4-0.1,0.5c-0.1,0.1-0.3,0.2-0.6,0.2c-0.3,0-0.7,0-1.2,0
				c-0.5,0-0.9,0-1.2,0c-0.3,0-0.5,0-0.7-0.1c-0.2,0-0.3-0.1-0.3-0.2c-0.1-0.1-0.1-0.2-0.2-0.3l-1.3-4h-7.4l-1.3,3.9
				c0,0.1-0.1,0.3-0.2,0.4c-0.1,0.1-0.2,0.2-0.3,0.2c-0.1,0.1-0.4,0.1-0.6,0.1c-0.3,0-0.6,0-1.1,0c-0.5,0-0.8,0-1.1,0
				c-0.3,0-0.4-0.1-0.5-0.2c-0.1-0.1-0.1-0.3-0.1-0.5c0-0.2,0.1-0.5,0.2-0.9l6.1-17.5c0.1-0.2,0.1-0.3,0.2-0.4
				c0.1-0.1,0.2-0.2,0.4-0.2c0.2-0.1,0.4-0.1,0.7-0.1c0.3,0,0.7,0,1.3,0c0.6,0,1.1,0,1.4,0c0.4,0,0.6,0.1,0.8,0.1
				c0.2,0.1,0.3,0.1,0.4,0.3c0.1,0.1,0.2,0.3,0.2,0.5L169.7,37.1z M160.6,22.6L160.6,22.6l-2.8,8.4h5.6L160.6,22.6z"/>
			<path fill="#FFFFFF" d="M193.4,37.2c0,0.2,0,0.4-0.1,0.6c-0.1,0.2-0.2,0.3-0.3,0.5c-0.1,0.1-0.3,0.2-0.5,0.3
				c-0.2,0.1-0.4,0.1-0.6,0.1h-1.7c-0.4,0-0.7,0-0.9-0.1c-0.3-0.1-0.5-0.2-0.7-0.4c-0.2-0.2-0.4-0.4-0.6-0.8
				c-0.2-0.3-0.4-0.7-0.7-1.2l-4.9-9.2c-0.3-0.5-0.6-1.1-0.9-1.8c-0.3-0.6-0.6-1.3-0.8-1.9h0c0,0.7,0.1,1.5,0.1,2.2
				c0,0.7,0,1.5,0,2.3V38c0,0.1,0,0.2-0.1,0.3c-0.1,0.1-0.2,0.2-0.3,0.2c-0.1,0.1-0.3,0.1-0.6,0.1c-0.2,0-0.5,0-0.9,0
				c-0.4,0-0.7,0-0.9,0c-0.2,0-0.4-0.1-0.5-0.1c-0.1-0.1-0.2-0.1-0.3-0.2c-0.1-0.1-0.1-0.2-0.1-0.3V20.3c0-0.5,0.1-0.8,0.4-1.1
				c0.3-0.2,0.6-0.4,1-0.4h2.2c0.4,0,0.7,0,1,0.1c0.3,0.1,0.5,0.2,0.7,0.3c0.2,0.2,0.4,0.4,0.6,0.6c0.2,0.3,0.4,0.6,0.6,1l3.8,7.2
				c0.2,0.4,0.4,0.9,0.7,1.3c0.2,0.4,0.4,0.8,0.6,1.3c0.2,0.4,0.4,0.8,0.6,1.2c0.2,0.4,0.4,0.8,0.6,1.2h0c0-0.7-0.1-1.5-0.1-2.2
				c0-0.8,0-1.5,0-2.2v-9.3c0-0.1,0-0.2,0.1-0.3c0.1-0.1,0.2-0.2,0.3-0.2c0.1-0.1,0.3-0.1,0.6-0.1c0.2,0,0.5,0,0.9,0
				c0.3,0,0.6,0,0.9,0c0.2,0,0.4,0.1,0.5,0.1c0.1,0.1,0.2,0.1,0.3,0.2c0.1,0.1,0.1,0.2,0.1,0.3L193.4,37.2L193.4,37.2z"/>
			<path fill="#FFFFFF" d="M215.6,20.5c0,0.3,0,0.5,0,0.8c0,0.2-0.1,0.4-0.1,0.5c-0.1,0.1-0.1,0.2-0.2,0.3c-0.1,0.1-0.2,0.1-0.3,0.1
				H210V38c0,0.1,0,0.2-0.1,0.3c-0.1,0.1-0.2,0.1-0.3,0.2c-0.2,0.1-0.4,0.1-0.6,0.1c-0.3,0-0.6,0-1,0c-0.4,0-0.7,0-1,0
				c-0.3,0-0.5-0.1-0.6-0.1c-0.2-0.1-0.3-0.1-0.3-0.2c-0.1-0.1-0.1-0.2-0.1-0.3V22.1H201c-0.1,0-0.2,0-0.3-0.1
				c-0.1-0.1-0.1-0.2-0.2-0.3c-0.1-0.1-0.1-0.3-0.1-0.5c0-0.2,0-0.5,0-0.8c0-0.3,0-0.6,0-0.8c0-0.2,0.1-0.4,0.1-0.5
				c0.1-0.1,0.1-0.2,0.2-0.3c0.1-0.1,0.2-0.1,0.3-0.1H215c0.1,0,0.2,0,0.3,0.1c0.1,0.1,0.1,0.1,0.2,0.3c0.1,0.1,0.1,0.3,0.1,0.5
				C215.5,19.9,215.6,20.2,215.6,20.5z"/>
			<path fill="#FFFFFF" d="M241.5,38c0.1,0.2,0.1,0.3,0.1,0.4c0,0.1,0,0.2-0.1,0.2c-0.1,0.1-0.2,0.1-0.3,0.1c-0.1,0-0.3,0-0.5,0
				c-0.2,0-0.4,0-0.5,0c-0.1,0-0.2,0-0.3-0.1c-0.1,0-0.1-0.1-0.2-0.1c0-0.1-0.1-0.1-0.1-0.2l-1.9-5.3H229l-1.8,5.2
				c0,0.1-0.1,0.1-0.1,0.2c0,0.1-0.1,0.1-0.2,0.1c-0.1,0-0.2,0.1-0.3,0.1c-0.1,0-0.3,0-0.5,0c-0.2,0-0.4,0-0.5,0
				c-0.1,0-0.2-0.1-0.3-0.1c-0.1-0.1-0.1-0.1-0.1-0.2c0-0.1,0-0.2,0.1-0.4l6.9-18.8c0-0.1,0.1-0.2,0.1-0.2c0.1-0.1,0.1-0.1,0.2-0.1
				c0.1,0,0.2-0.1,0.4-0.1c0.1,0,0.3,0,0.5,0c0.2,0,0.3,0,0.5,0c0.1,0,0.3,0,0.4,0.1c0.1,0,0.2,0.1,0.2,0.1c0.1,0.1,0.1,0.1,0.1,0.2
				L241.5,38z M233.3,20.8L233.3,20.8l-3.7,10.6h7.6L233.3,20.8z"/>
			<path fill="#FFFFFF" d="M259.7,33.2c0,0.9-0.2,1.7-0.5,2.3c-0.3,0.7-0.8,1.3-1.3,1.8c-0.6,0.5-1.2,0.9-2,1.1
				c-0.8,0.3-1.6,0.4-2.6,0.4c-0.6,0-1.2-0.1-1.8-0.2c-0.6-0.1-1.1-0.3-1.5-0.4c-0.4-0.2-0.8-0.3-1.1-0.5c-0.3-0.2-0.5-0.3-0.6-0.4
				c-0.1-0.1-0.2-0.3-0.2-0.4c-0.1-0.2-0.1-0.4-0.1-0.6c0-0.2,0-0.3,0-0.4c0-0.1,0-0.2,0.1-0.3c0-0.1,0.1-0.1,0.1-0.1
				c0.1,0,0.1,0,0.2,0c0.1,0,0.3,0.1,0.6,0.3c0.3,0.2,0.6,0.4,1,0.6c0.4,0.2,0.9,0.4,1.5,0.6c0.6,0.2,1.2,0.3,2,0.3
				c0.6,0,1.2-0.1,1.7-0.3c0.5-0.2,1-0.4,1.3-0.7c0.4-0.3,0.7-0.7,0.9-1.2c0.2-0.5,0.3-1,0.3-1.6c0-0.6-0.1-1.1-0.4-1.6
				c-0.3-0.4-0.6-0.8-1-1.2c-0.4-0.3-0.9-0.6-1.5-0.9c-0.5-0.3-1.1-0.5-1.7-0.8c-0.6-0.3-1.1-0.6-1.7-0.9c-0.6-0.3-1-0.7-1.5-1.1
				c-0.4-0.4-0.8-0.9-1-1.5c-0.3-0.6-0.4-1.2-0.4-2c0-0.8,0.1-1.4,0.4-2.1c0.3-0.6,0.7-1.1,1.2-1.5c0.5-0.4,1.1-0.7,1.8-1
				c0.7-0.2,1.5-0.3,2.3-0.3c0.4,0,0.8,0,1.3,0.1c0.4,0.1,0.8,0.2,1.2,0.3c0.4,0.1,0.7,0.3,1,0.4c0.3,0.2,0.5,0.3,0.6,0.4
				c0.1,0.1,0.2,0.2,0.2,0.2c0,0,0,0.1,0.1,0.2c0,0.1,0,0.2,0,0.3c0,0.1,0,0.2,0,0.4c0,0.1,0,0.3,0,0.4c0,0.1,0,0.2-0.1,0.3
				c0,0.1-0.1,0.1-0.1,0.2c0,0-0.1,0.1-0.2,0.1c-0.1,0-0.3-0.1-0.5-0.2c-0.2-0.1-0.5-0.3-0.9-0.5c-0.3-0.2-0.8-0.3-1.2-0.5
				c-0.5-0.1-1-0.2-1.6-0.2c-0.6,0-1.1,0.1-1.6,0.2c-0.4,0.2-0.8,0.4-1.1,0.7c-0.3,0.3-0.5,0.6-0.7,1c-0.1,0.4-0.2,0.8-0.2,1.2
				c0,0.6,0.1,1.1,0.4,1.6c0.3,0.4,0.6,0.8,1.1,1.2c0.4,0.3,0.9,0.6,1.5,0.9c0.6,0.3,1.1,0.5,1.7,0.8c0.6,0.3,1.1,0.6,1.7,0.9
				c0.6,0.3,1.1,0.7,1.5,1.1c0.4,0.4,0.8,0.9,1.1,1.5C259.6,31.8,259.7,32.5,259.7,33.2z"/>
			<path fill="#FFFFFF" d="M270.4,38.3c0,0.1,0,0.1,0,0.2c0,0.1-0.1,0.1-0.2,0.1c-0.1,0-0.2,0.1-0.3,0.1c-0.1,0-0.3,0-0.5,0
				c-0.2,0-0.3,0-0.4,0c-0.1,0-0.2,0-0.3-0.1c-0.1,0-0.1-0.1-0.2-0.1c0-0.1,0-0.1,0-0.2V19.1c0-0.1,0-0.1,0.1-0.2
				c0-0.1,0.1-0.1,0.2-0.1c0.1,0,0.2-0.1,0.3-0.1c0.1,0,0.3,0,0.4,0c0.2,0,0.3,0,0.5,0c0.1,0,0.2,0,0.3,0.1c0.1,0,0.1,0.1,0.2,0.1
				c0,0.1,0,0.1,0,0.2L270.4,38.3L270.4,38.3z"/>
			<path fill="#FFFFFF" d="M294.9,38c0.1,0.2,0.1,0.3,0.1,0.4c0,0.1,0,0.2-0.1,0.2c-0.1,0.1-0.2,0.1-0.3,0.1c-0.1,0-0.3,0-0.5,0
				c-0.2,0-0.4,0-0.5,0c-0.1,0-0.2,0-0.3-0.1c-0.1,0-0.1-0.1-0.2-0.1c0-0.1-0.1-0.1-0.1-0.2l-1.9-5.3h-8.7l-1.8,5.2
				c0,0.1-0.1,0.1-0.1,0.2c0,0.1-0.1,0.1-0.2,0.1c-0.1,0-0.2,0.1-0.3,0.1c-0.1,0-0.3,0-0.5,0c-0.2,0-0.4,0-0.5,0
				c-0.1,0-0.2-0.1-0.3-0.1c-0.1-0.1-0.1-0.1-0.1-0.2c0-0.1,0-0.2,0.1-0.4l6.9-18.8c0-0.1,0.1-0.2,0.1-0.2c0.1-0.1,0.1-0.1,0.2-0.1
				c0.1,0,0.2-0.1,0.4-0.1c0.1,0,0.3,0,0.5,0c0.2,0,0.3,0,0.5,0c0.1,0,0.3,0,0.4,0.1c0.1,0,0.2,0.1,0.2,0.1c0.1,0.1,0.1,0.1,0.1,0.2
				L294.9,38z M286.7,20.8L286.7,20.8L283,31.5h7.6L286.7,20.8z"/>
		</g>
	</g>
	<g>
		<g>
			<path fill="#FFFFFF" d="M62.5,51.9h0.7l1.6,3.2l1.6-3.2h0.7l-2,3.8V58h-0.6v-2.4L62.5,51.9z"/>
			<path fill="#FFFFFF" d="M73.5,58.1c-1.7,0-3.1-1.3-3.1-3.2c0-1.9,1.3-3.2,3.1-3.2c1.7,0,3.1,1.3,3.1,3.2
				C76.5,56.8,75.2,58.1,73.5,58.1z M73.5,57.6c1.4,0,2.4-1,2.4-2.6c0-1.6-1.1-2.6-2.4-2.6c-1.4,0-2.4,1-2.4,2.6
				C71,56.6,72.1,57.6,73.5,57.6z"/>
			<path fill="#FFFFFF" d="M80.3,51.9h0.6v3.9c0,1.3,0.7,1.8,1.6,1.8c1,0,1.6-0.5,1.6-1.8v-3.9h0.6v3.9c0,1.6-1,2.4-2.3,2.4
				c-1.3,0-2.2-0.7-2.2-2.4V51.9z"/>
			<path fill="#FFFFFF" d="M90.7,51.9c1.4,0,2.1,0.8,2.1,1.8c0,0.9-0.5,1.6-1.5,1.8l1.6,2.6h-0.7l-1.5-2.6h-1.1V58h-0.6v-6.2H90.7
				L90.7,51.9z M90.7,52.4h-1.2V55h1.2c1,0,1.5-0.5,1.5-1.3C92.2,52.9,91.8,52.4,90.7,52.4z"/>
			<path fill="#FFFFFF" d="M104.5,51.8c1.4,0,2.4,0.7,2.9,1.9h-0.7c-0.3-0.8-1.1-1.3-2.1-1.3c-1.4,0-2.4,1-2.4,2.6
				c0,1.6,1,2.6,2.4,2.6c1.1,0,1.8-0.5,2.1-1.3h0.7c-0.4,1.2-1.5,1.9-2.9,1.9c-1.7,0-3-1.3-3-3.2C101.5,53.1,102.8,51.8,104.5,51.8z
				"/>
			<path fill="#FFFFFF" d="M110.8,51.9h0.7l1.6,3.2l1.6-3.2h0.7l-2,3.8V58h-0.6v-2.4L110.8,51.9z"/>
			<path fill="#FFFFFF" d="M121.1,58h-2.1v-6.2h2.1c1.3,0,1.9,0.7,1.9,1.6c0,0.8-0.5,1.3-1.1,1.4c0.7,0.1,1.2,0.8,1.2,1.5
				C123.1,57.3,122.4,58,121.1,58z M121,52.4h-1.4v2.2h1.4c0.8,0,1.3-0.4,1.3-1.1C122.3,52.8,121.9,52.4,121,52.4z M121,55.1h-1.5
				v2.4h1.5c0.9,0,1.4-0.5,1.4-1.2C122.5,55.6,121.9,55.1,121,55.1z"/>
			<path fill="#FFFFFF" d="M130.1,52.4h-2.6v2.3h2.3v0.5h-2.3v2.3h2.6V58h-3.2v-6.2h3.2V52.4z"/>
			<path fill="#FFFFFF" d="M135.9,51.9c1.4,0,2.1,0.8,2.1,1.8c0,0.9-0.5,1.6-1.5,1.8L138,58h-0.7l-1.5-2.6h-1.1V58H134v-6.2H135.9
				L135.9,51.9z M135.9,52.4h-1.2V55h1.2c1,0,1.5-0.5,1.5-1.3C137.3,52.9,136.9,52.4,135.9,52.4z"/>
			<path fill="#FFFFFF" d="M143.7,58.1c-1.2,0-2.1-0.7-2.1-1.7h0.7c0.1,0.5,0.4,1.1,1.4,1.1c0.9,0,1.4-0.5,1.4-1.1
				c0-1.8-3.4-0.7-3.4-3c0-1,0.8-1.7,2-1.7c1.2,0,1.9,0.7,2,1.5H145c-0.1-0.4-0.5-1-1.3-1c-0.7,0-1.3,0.4-1.3,1.1
				c0,1.8,3.4,0.7,3.4,3C145.7,57.3,145.1,58.1,143.7,58.1z"/>
			<path fill="#FFFFFF" d="M153.2,56.6h-2.8l-0.5,1.5h-0.7l2.3-6.1h0.7l2.3,6.1h-0.7L153.2,56.6z M151.8,52.7l-1.2,3.3h2.4
				L151.8,52.7z"/>
			<path fill="#FFFFFF" d="M158,51.9h3.3v0.5h-2.7v2.3h2.3v0.5h-2.3V58H158V51.9z"/>
			<path fill="#FFFFFF" d="M168.3,52.4h-2.6v2.3h2.3v0.5h-2.3v2.3h2.6V58h-3.2v-6.2h3.2V52.4z"/>
			<path fill="#FFFFFF" d="M171.7,51.9h4.1v0.5h-1.7V58h-0.6v-5.7h-1.7L171.7,51.9L171.7,51.9z"/>
			<path fill="#FFFFFF" d="M178.9,51.9h0.7l1.6,3.2l1.6-3.2h0.7l-2,3.8V58h-0.6v-2.4L178.9,51.9z"/>
			<path fill="#FFFFFF" d="M192.2,51.9h0.6V58h-0.6V51.9z"/>
			<path fill="#FFFFFF" d="M198.7,58.1c-1.2,0-2.1-0.7-2.1-1.7h0.7c0.1,0.5,0.4,1.1,1.4,1.1c0.9,0,1.4-0.5,1.4-1.1
				c0-1.8-3.4-0.7-3.4-3c0-1,0.8-1.7,2-1.7c1.2,0,1.9,0.7,2,1.5H200c-0.1-0.4-0.5-1-1.3-1c-0.7,0-1.3,0.4-1.3,1.1
				c0,1.8,3.4,0.7,3.4,3C200.7,57.3,200.1,58.1,198.7,58.1z"/>
			<path fill="#FFFFFF" d="M212.5,58.1c-1.7,0-3.1-1.3-3.1-3.2c0-1.9,1.3-3.2,3.1-3.2c1.7,0,3.1,1.3,3.1,3.2
				C215.5,56.8,214.2,58.1,212.5,58.1z M212.5,57.6c1.4,0,2.4-1,2.4-2.6c0-1.6-1.1-2.6-2.4-2.6c-1.4,0-2.4,1-2.4,2.6
				C210,56.6,211.1,57.6,212.5,57.6z"/>
			<path fill="#FFFFFF" d="M219.3,51.9h0.6v3.9c0,1.3,0.7,1.8,1.6,1.8c1,0,1.6-0.5,1.6-1.8v-3.9h0.6v3.9c0,1.6-1,2.4-2.3,2.4
				c-1.3,0-2.2-0.7-2.2-2.4V51.9z"/>
			<path fill="#FFFFFF" d="M229.7,51.9c1.4,0,2.1,0.8,2.1,1.8c0,0.9-0.5,1.6-1.5,1.8l1.6,2.6h-0.7l-1.5-2.6h-1.1V58h-0.6v-6.2H229.7
				L229.7,51.9z M229.7,52.4h-1.2V55h1.2c1,0,1.5-0.5,1.5-1.3C231.2,52.9,230.7,52.4,229.7,52.4z"/>
			<path fill="#FFFFFF" d="M242.7,55.4h-1.3V58h-0.6v-6.2h1.9c1.4,0,2.1,0.8,2.1,1.8C244.7,54.6,244.1,55.4,242.7,55.4z M242.7,54.9
				c1,0,1.5-0.5,1.5-1.2c0-0.8-0.4-1.3-1.5-1.3h-1.3v2.5H242.7L242.7,54.9z"/>
			<path fill="#FFFFFF" d="M250.3,51.9c1.4,0,2.1,0.8,2.1,1.8c0,0.9-0.5,1.6-1.5,1.8l1.6,2.6h-0.7l-1.5-2.6h-1.1V58h-0.6v-6.2H250.3
				L250.3,51.9z M250.3,52.4h-1.2V55h1.2c1,0,1.5-0.5,1.5-1.3C251.8,52.9,251.3,52.4,250.3,52.4z"/>
			<path fill="#FFFFFF" d="M256.3,51.9h0.6V58h-0.6V51.9z"/>
			<path fill="#FFFFFF" d="M263.8,58.1c-1.7,0-3.1-1.3-3.1-3.2c0-1.9,1.3-3.2,3.1-3.2c1.7,0,3.1,1.3,3.1,3.2
				C266.8,56.8,265.5,58.1,263.8,58.1z M263.8,57.6c1.4,0,2.4-1,2.4-2.6c0-1.6-1.1-2.6-2.4-2.6c-1.4,0-2.4,1-2.4,2.6
				C261.3,56.6,262.4,57.6,263.8,57.6z"/>
			<path fill="#FFFFFF" d="M272.5,51.9c1.4,0,2.1,0.8,2.1,1.8c0,0.9-0.5,1.6-1.5,1.8l1.6,2.6h-0.7l-1.5-2.6h-1.1V58h-0.6v-6.2H272.5
				L272.5,51.9z M272.5,52.4h-1.2V55h1.2c1,0,1.5-0.5,1.5-1.3C274,52.9,273.5,52.4,272.5,52.4z"/>
			<path fill="#FFFFFF" d="M278.5,51.9h0.6V58h-0.6V51.9z"/>
			<path fill="#FFFFFF" d="M282.7,51.9h4.1v0.5h-1.7V58h-0.6v-5.7h-1.7V51.9z"/>
			<path fill="#FFFFFF" d="M289.9,51.9h0.7l1.6,3.2l1.6-3.2h0.7l-2,3.8V58h-0.6v-2.4L289.9,51.9z"/>
		</g>
	</g>
	<g>
		<g>
			<path fill="#FFFFFF" d="M33.9,28l-9.8,17.1c-2.5,4.3-1.3,9.6,2.5,12.5c0.1,0,0.4,0.4,1.1,0.2c0.4-0.1,0.6-0.5,0.6-0.5l9.3-16.1
				C40.1,36.6,38.5,30.7,33.9,28z"/>
			<path fill="#FFFFFF" d="M27.7,38.8l-9.9-17.1c-2.5-4.3-7.6-5.9-12.1-4.1c-0.1,0-0.6,0.2-0.7,0.9c-0.1,0.4,0.1,0.7,0.1,0.7l9.3,16
				C17.1,39.9,23.1,41.5,27.7,38.8z"/>
			<path fill="#FFFFFF" d="M50.4,18.6c-0.3-0.3-0.7-0.3-0.7-0.3l-18.5,0c-5.4,0-9.7,4.4-9.7,9.7l3.3,0l2.9,5l2.9-5l10.6,0
				c4.9,0,9-3.7,9.6-8.4C50.8,19.6,50.9,19,50.4,18.6z"/>
		</g>
	</g>
</g>
</svg>
